<mxfile modified="2022-07-12T13:08:45.214Z" host="app.diagrams.net" agent="5.0 (Macintosh; Intel Mac OS X 10_15_7) AppleWebKit/605.1.15 (KHTML, like Gecko) Version/15.4 Safari/605.1.15" etag="st28Nqr4sPqOC89w6B-T" version="20.0.4" type="github">
  <diagram id="C2fSY1v2SiZeoUbDoYyL" name="Page-1">
    <mxGraphModel dx="726" dy="562" grid="1" gridSize="10" guides="1" tooltips="1" connect="1" arrows="1" fold="1" page="1" pageScale="1" pageWidth="1169" pageHeight="827" math="0" shadow="0">
      <root>
        <mxCell id="0" />
        <mxCell id="1" parent="0" />
        <mxCell id="3ne1QswCM8ZiEu4GHsYG-19" style="orthogonalLoop=1;jettySize=auto;html=1;curved=1;sourcePerimeterSpacing=5;targetPerimeterSpacing=5;" parent="1" edge="1">
          <mxGeometry relative="1" as="geometry">
            <mxPoint x="287.5" y="351.00000000000034" as="sourcePoint" />
            <mxPoint x="319.5" y="351.0000000000002" as="targetPoint" />
          </mxGeometry>
        </mxCell>
        <mxCell id="3ne1QswCM8ZiEu4GHsYG-17" style="orthogonalLoop=1;jettySize=auto;html=1;curved=1;sourcePerimeterSpacing=5;targetPerimeterSpacing=5;" parent="1" target="3ne1QswCM8ZiEu4GHsYG-9" edge="1">
          <mxGeometry relative="1" as="geometry">
            <mxPoint x="89.5" y="351.00000000000034" as="sourcePoint" />
          </mxGeometry>
        </mxCell>
        <mxCell id="3ne1QswCM8ZiEu4GHsYG-18" style="orthogonalLoop=1;jettySize=auto;html=1;curved=1;sourcePerimeterSpacing=5;targetPerimeterSpacing=5;" parent="1" source="3ne1QswCM8ZiEu4GHsYG-9" edge="1">
          <mxGeometry relative="1" as="geometry">
            <mxPoint x="229.5" y="351.00000000000034" as="targetPoint" />
          </mxGeometry>
        </mxCell>
        <mxCell id="3ne1QswCM8ZiEu4GHsYG-9" value="ISP Modem" style="shape=image;verticalLabelPosition=bottom;verticalAlign=top;aspect=fixed;image=data:image/svg+xml,PHN2ZyB4bWxucz0iaHR0cDovL3d3dy53My5vcmcvMjAwMC9zdmciIHhtbG5zOnhsaW5rPSJodHRwOi8vd3d3LnczLm9yZy8xOTk5L3hsaW5rIiB2ZXJzaW9uPSIxLjEiIGlkPSJMYXllcl8xIiB4PSIwcHgiIHk9IjBweCIgd2lkdGg9IjQ4cHgiIGhlaWdodD0iNDhweCIgdmlld0JveD0iMCAwIDQ4IDQ4IiBlbmFibGUtYmFja2dyb3VuZD0ibmV3IDAgMCA0OCA0OCIgeG1sOnNwYWNlPSJwcmVzZXJ2ZSI+JiN4YTs8ZyBpZD0iY29sb3JfMzdfIj4mI3hhOwk8Zz4mI3hhOwkJPHBhdGggZmlsbD0iI0ZGREE4RSIgZD0iTTM0LDhMMTMsMThjMCwwLDAsOS4xNDYsMCwxMmMwLDAuMDc2LDAuMDE3LDAuMTQ4LDAuMDQ0LDAuMjE4QzEzLjE0NiwzMC42NjIsMTMuNTI1LDMxLDE0LDMxbDQuMzAzLDEuNzE0ICAgIEMxOC40ODMsMzIuODksMTguNzI5LDMzLDE5LDMzYzAuNTUzLDAsMS0wLjQ0NywxLTFjMC0wLjIsMC0xMCwwLTEwbDIxLTExTDM0LDh6Ii8+JiN4YTsJPC9nPiYjeGE7PC9nPiYjeGE7PGcgaWQ9Im91cmxpbmUiPiYjeGE7CTxnPiYjeGE7CQk8cGF0aCBmaWxsPSIjMzg0RDY4IiBkPSJNNDUuNDI3LDEyLjEwNGwwLjAwMy0wLjAwN2wtMjEtMTBDMjQuNDMsMi4wOTcsMjQuMzEzLDIsMjQsMnMtMC40MywwLjA5Ny0wLjQzLDAuMDk3bC0yMSwxMCAgICBjMCwwLDAuMDAxLDAuMDA0LDAuMDAyLDAuMDA1QzIuNDkzLDEyLjEzNiwyLDEyLjQwNCwyLDEzdjIyYzAsMC4zOTcsMC4yMzYsMC43MzUsMC41NzMsMC44OTZMMi41NywzNS45MDJsMjEsMTBsMC4wMDMtMC4wMDYgICAgQzIzLjcwNCw0NS45NTksMjMuODQ2LDQ2LDI0LDQ2czAuMjk2LTAuMDQxLDAuNDI3LTAuMTA0bDAuMDAzLDAuMDA2bDIxLTEwbC0wLjAwMy0wLjAwNkM0NS43NjQsMzUuNzM1LDQ2LDM1LjM5Nyw0NiwzNVYxMyAgICBDNDYsMTIuNzgxLDQ1Ljg3MiwxMi4zMTYsNDUuNDI3LDEyLjEwNHogTTM1LjAyNCw5LjM1N0wxNSwxOC42OTd2OS44MjZsLTMtMS4yVjE3bDE5LjczNi05LjIwOUwzNS4wMjQsOS4zNTd6IE0yNCw0LjEwNyAgICBsNS4zNzQsMi41NkwxMC43LDE1LjU1OUw1LjMyNiwxM0wyNCw0LjEwN3ogTTIzLDQzLjQxNkw0LDM0LjM2OFYxNC41ODRsNiwyLjg1N1YyOGMwLDAuNDIxLDAuMjYyLDAuNzc3LDAuNjMsMC45MjVsLTAuMDAxLDAuMDA0ICAgIGw0Ljk4MSwxLjk5MkMxNS4zODgsMzAuODI3LDE1Ljc1NSwzMSwxNiwzMWMwLjU1MywwLDEtMC40NDcsMS0xdi05LjIyNmw2LDIuODU3VjQzLjQxNnogTTI0LDIxLjg5M2wtNS40NzUtMi42MDdsMTguODQtOC44MTMgICAgTDQyLjY3NCwxM0wyNCwyMS44OTN6IE00NCwzNC4zNjhsLTE5LDkuMDQ4VjIzLjYzMmwxOS05LjA0OFYzNC4zNjh6Ii8+JiN4YTsJPC9nPiYjeGE7PC9nPiYjeGE7PC9zdmc+" parent="1" vertex="1">
          <mxGeometry x="136.5" y="327.0000000000002" width="48" height="48" as="geometry" />
        </mxCell>
        <mxCell id="3ne1QswCM8ZiEu4GHsYG-20" style="orthogonalLoop=1;jettySize=auto;html=1;curved=1;sourcePerimeterSpacing=5;targetPerimeterSpacing=5;" parent="1" edge="1">
          <mxGeometry relative="1" as="geometry">
            <mxPoint x="406" y="350.5000000000002" as="sourcePoint" />
            <mxPoint x="440" y="350.50000000000034" as="targetPoint" />
          </mxGeometry>
        </mxCell>
        <mxCell id="3ne1QswCM8ZiEu4GHsYG-30" style="orthogonalLoop=1;jettySize=auto;html=1;curved=1;sourcePerimeterSpacing=5;targetPerimeterSpacing=5;exitX=1;exitY=0.5;exitDx=0;exitDy=0;" parent="1" target="3ne1QswCM8ZiEu4GHsYG-16" edge="1" source="-xF81zYl10iay85FKAHE-21">
          <mxGeometry relative="1" as="geometry">
            <mxPoint x="480" y="184" as="sourcePoint" />
          </mxGeometry>
        </mxCell>
        <mxCell id="mPrYQ4_3OiID5dz4hrqd-1" style="edgeStyle=orthogonalEdgeStyle;rounded=0;orthogonalLoop=1;jettySize=auto;html=1;" edge="1" parent="1" source="3ne1QswCM8ZiEu4GHsYG-16">
          <mxGeometry relative="1" as="geometry">
            <mxPoint x="640" y="300" as="targetPoint" />
          </mxGeometry>
        </mxCell>
        <mxCell id="3ne1QswCM8ZiEu4GHsYG-16" value="Administration" style="shape=image;verticalLabelPosition=bottom;verticalAlign=top;aspect=fixed;image=data:image/svg+xml,PHN2ZyB4bWxucz0iaHR0cDovL3d3dy53My5vcmcvMjAwMC9zdmciIHhtbG5zOnhsaW5rPSJodHRwOi8vd3d3LnczLm9yZy8xOTk5L3hsaW5rIiB2ZXJzaW9uPSIxLjEiIGlkPSJMYXllcl8xIiB4PSIwcHgiIHk9IjBweCIgd2lkdGg9IjQ4cHgiIGhlaWdodD0iNDhweCIgdmlld0JveD0iMCAwIDQ4IDQ4IiBlbmFibGUtYmFja2dyb3VuZD0ibmV3IDAgMCA0OCA0OCIgeG1sOnNwYWNlPSJwcmVzZXJ2ZSI+JiN4YTs8ZyBpZD0iY29sb3JfNTFfIj4mI3hhOwk8Zz4mI3hhOwkJPHBhdGggZmlsbD0iIzg5OENDNSIgZD0iTTQzLDZoLTV2NGMwLDEuMTA0LTAuODk2LDItMiwyaC0yYy0xLjEwNCwwLTItMC44OTYtMi0yVjZIMTh2NGMwLDEuMTA0LTAuODk2LDItMiwyaC0yICAgIGMtMS4xMDQsMC0yLTAuODk2LTItMlY2SDlDOC40NDcsNiw4LDYuNDQ3LDgsN3YzOGMwLDAuNTUzLDAuNDQ3LDEsMSwxaDM0YzAuNTUzLDAsMS0wLjQ0NywxLTFWN0M0NCw2LjQ0Nyw0My41NTMsNiw0Myw2eiIvPiYjeGE7CTwvZz4mI3hhOzwvZz4mI3hhOzxnIGlkPSJvdXRsaW5lXzQ5XyI+JiN4YTsJPGc+JiN4YTsJCTxwYXRoIGZpbGw9IiMzODRENjgiIGQ9Ik0xNS43MTUsMjguMjg1Yy0wLjM3NS0wLjM3NS0wLjk4Mi0wLjM3NS0xLjM1NywwTDEzLDI5LjY0M2wtMS4zNTctMS4zNTcgICAgYy0wLjM3NS0wLjM3NS0wLjk4Mi0wLjM3NS0xLjM1NywwYy0wLjM3NSwwLjM3NC0wLjM3NSwwLjk4MiwwLDEuMzU3TDExLjY0MywzMWwtMS4zNTcsMS4zNTdjLTAuMzc1LDAuMzc1LTAuMzc1LDAuOTgzLDAsMS4zNTcgICAgYzAuMzc1LDAuMzc1LDAuOTgyLDAuMzc1LDEuMzU3LDBMMTMsMzIuMzU3bDEuMzU3LDEuMzU3YzAuMzc1LDAuMzc1LDAuOTgyLDAuMzc1LDEuMzU3LDBjMC4zNzUtMC4zNzQsMC4zNzUtMC45ODIsMC0xLjM1NyAgICBMMTQuMzU3LDMxbDEuMzU3LTEuMzU3QzE2LjA5LDI5LjI2OCwxNi4wOSwyOC42NTksMTUuNzE1LDI4LjI4NXogTTE1LjcxNSwxOC4yODVjLTAuMzc1LTAuMzc1LTAuOTgyLTAuMzc1LTEuMzU3LDBMMTMsMTkuNjQzICAgIGwtMS4zNTctMS4zNTdjLTAuMzc1LTAuMzc1LTAuOTgyLTAuMzc1LTEuMzU3LDBjLTAuMzc1LDAuMzc0LTAuMzc1LDAuOTgyLDAsMS4zNTdMMTEuNjQzLDIxbC0xLjM1NywxLjM1NyAgICBjLTAuMzc1LDAuMzc1LTAuMzc1LDAuOTgyLDAsMS4zNTdzMC45ODIsMC4zNzUsMS4zNTcsMEwxMywyMi4zNTdsMS4zNTcsMS4zNTdjMC4zNzUsMC4zNzUsMC45ODIsMC4zNzUsMS4zNTcsMCAgICBzMC4zNzUtMC45ODIsMC0xLjM1N0wxNC4zNTcsMjFsMS4zNTctMS4zNTdDMTYuMDksMTkuMjY4LDE2LjA5LDE4LjY1OSwxNS43MTUsMTguMjg1eiBNNDEsNmgtNVY0YzAtMS4xMDQtMC44OTYtMi0yLTJoLTIgICAgYy0xLjEwNCwwLTIsMC44OTYtMiwydjJIMTZWNGMwLTEuMTA0LTAuODk2LTItMi0yaC0yYy0xLjEwNCwwLTIsMC44OTYtMiwydjJINUM0LjQ0Nyw2LDQsNi40NDcsNCw3djM4YzAsMC41NTMsMC40NDcsMSwxLDFoMzYgICAgYzAuNTUzLDAsMS0wLjQ0NywxLTFWN0M0Miw2LjQ0Nyw0MS41NTMsNiw0MSw2eiBNMzIsNWMwLTAuNTUzLDAuNDQ3LTEsMS0xczEsMC40NDcsMSwxdjRjMCwwLjU1My0wLjQ0NywxLTEsMXMtMS0wLjQ0Ny0xLTFWNXogICAgIE0xMiw1YzAtMC41NTMsMC40NDctMSwxLTFzMSwwLjQ0NywxLDF2NGMwLDAuNTUzLTAuNDQ3LDEtMSwxcy0xLTAuNDQ3LTEtMVY1eiBNNDAsNDRINlY4aDR2MmMwLDEuMTA0LDAuODk2LDIsMiwyaDIgICAgYzEuMTA0LDAsMi0wLjg5NiwyLTJWOGgxNHYyYzAsMS4xMDQsMC44OTYsMiwyLDJoMmMxLjEwNCwwLDItMC44OTYsMi0yVjhoNFY0NHogTTM0LDIwSDIwYy0wLjU1MywwLTEsMC40NDctMSwxczAuNDQ3LDEsMSwxaDE0ICAgIGMwLjU1MywwLDEtMC40NDcsMS0xUzM0LjU1MywyMCwzNCwyMHogTTMwLDMwSDIwYy0wLjU1MywwLTEsMC40NDctMSwxczAuNDQ3LDEsMSwxaDEwYzAuNTUzLDAsMS0wLjQ0NywxLTFTMzAuNTUzLDMwLDMwLDMweiIvPiYjeGE7CTwvZz4mI3hhOzwvZz4mI3hhOzwvc3ZnPg==" parent="1" vertex="1">
          <mxGeometry x="616" y="166.0000000000001" width="48" height="48" as="geometry" />
        </mxCell>
        <mxCell id="3ne1QswCM8ZiEu4GHsYG-31" value="Simple Topology" style="text;html=1;strokeColor=none;fillColor=none;align=center;verticalAlign=middle;whiteSpace=wrap;rounded=0;fontStyle=1;fontSize=20;fontColor=#4D4D4D;" parent="1" vertex="1">
          <mxGeometry x="189.5" y="50" width="790" height="30" as="geometry" />
        </mxCell>
        <mxCell id="3ne1QswCM8ZiEu4GHsYG-32" value="" style="line;strokeWidth=2;html=1;fontSize=20;fontColor=#4D4D4D;" parent="1" vertex="1">
          <mxGeometry x="103.5" y="80" width="960" height="10" as="geometry" />
        </mxCell>
        <mxCell id="-xF81zYl10iay85FKAHE-1" value="Internet" style="aspect=fixed;perimeter=ellipsePerimeter;html=1;align=center;shadow=0;dashed=0;spacingTop=3;image;image=img/lib/active_directory/internet_cloud.svg;" parent="1" vertex="1">
          <mxGeometry x="40" y="335.25" width="50" height="31.5" as="geometry" />
        </mxCell>
        <mxCell id="-xF81zYl10iay85FKAHE-22" style="edgeStyle=orthogonalEdgeStyle;rounded=0;orthogonalLoop=1;jettySize=auto;html=1;exitX=0.5;exitY=0;exitDx=0;exitDy=0;" parent="1" source="-xF81zYl10iay85FKAHE-2" target="-xF81zYl10iay85FKAHE-21" edge="1">
          <mxGeometry relative="1" as="geometry" />
        </mxCell>
        <mxCell id="-xF81zYl10iay85FKAHE-2" value="Home Router&lt;br&gt;192.168.0.1/24&lt;br&gt;Static Route to&lt;br&gt;192.168.10.0/24 via&amp;nbsp;&lt;br&gt;pfSense WAN IP&lt;br&gt;192.168.0.5" style="image;html=1;image=img/lib/clip_art/networking/Wireless_Router_128x128.png" parent="1" vertex="1">
          <mxGeometry x="230" y="317.75" width="65.5" height="49" as="geometry" />
        </mxCell>
        <mxCell id="-xF81zYl10iay85FKAHE-3" value="Cisco Switch&lt;br&gt;192.168.10.254&lt;br&gt;Static Route to&lt;br&gt;192.168.0.0/24&lt;br&gt;via 192.168.10.1&amp;nbsp;" style="sketch=0;points=[[0.015,0.015,0],[0.985,0.015,0],[0.985,0.985,0],[0.015,0.985,0],[0.25,0,0],[0.5,0,0],[0.75,0,0],[1,0.25,0],[1,0.5,0],[1,0.75,0],[0.75,1,0],[0.5,1,0],[0.25,1,0],[0,0.75,0],[0,0.5,0],[0,0.25,0]];verticalLabelPosition=bottom;html=1;verticalAlign=top;aspect=fixed;align=center;pointerEvents=1;shape=mxgraph.cisco19.rect;prIcon=l2_switch;fillColor=#FAFAFA;strokeColor=#005073;" parent="1" vertex="1">
          <mxGeometry x="350" y="327" width="50" height="50" as="geometry" />
        </mxCell>
        <mxCell id="-xF81zYl10iay85FKAHE-4" value="Proxmox&lt;br&gt;192.168.10.5" style="image;html=1;image=img/lib/clip_art/computers/Server_Rack_128x128.png" parent="1" vertex="1">
          <mxGeometry x="440" y="311" width="80" height="80" as="geometry" />
        </mxCell>
        <mxCell id="-xF81zYl10iay85FKAHE-12" style="edgeStyle=orthogonalEdgeStyle;rounded=0;orthogonalLoop=1;jettySize=auto;html=1;exitX=1;exitY=0.5;exitDx=0;exitDy=0;" parent="1" source="-xF81zYl10iay85FKAHE-5" target="-xF81zYl10iay85FKAHE-9" edge="1">
          <mxGeometry relative="1" as="geometry" />
        </mxCell>
        <mxCell id="-xF81zYl10iay85FKAHE-5" value="pfSense&lt;br&gt;with two NICs" style="image;html=1;image=img/lib/clip_art/networking/Firewall-page1_128x128.png" parent="1" vertex="1">
          <mxGeometry x="600" y="311" width="80" height="80" as="geometry" />
        </mxCell>
        <mxCell id="-xF81zYl10iay85FKAHE-6" style="orthogonalLoop=1;jettySize=auto;html=1;curved=1;sourcePerimeterSpacing=5;targetPerimeterSpacing=5;entryX=0;entryY=0.5;entryDx=0;entryDy=0;" parent="1" target="-xF81zYl10iay85FKAHE-5" edge="1">
          <mxGeometry relative="1" as="geometry">
            <mxPoint x="520" y="350.50000000000034" as="sourcePoint" />
            <mxPoint x="552" y="350.5000000000002" as="targetPoint" />
          </mxGeometry>
        </mxCell>
        <mxCell id="-xF81zYl10iay85FKAHE-7" value="WAN&lt;br&gt;192.168.0.5" style="text;html=1;strokeColor=none;fillColor=none;align=center;verticalAlign=middle;whiteSpace=wrap;rounded=0;" parent="1" vertex="1">
          <mxGeometry x="525" y="311" width="60" height="30" as="geometry" />
        </mxCell>
        <mxCell id="-xF81zYl10iay85FKAHE-18" style="edgeStyle=orthogonalEdgeStyle;rounded=0;orthogonalLoop=1;jettySize=auto;html=1;exitX=1;exitY=0.5;exitDx=0;exitDy=0;" parent="1" source="-xF81zYl10iay85FKAHE-9" edge="1">
          <mxGeometry relative="1" as="geometry">
            <mxPoint x="880" y="350" as="targetPoint" />
          </mxGeometry>
        </mxCell>
        <mxCell id="-xF81zYl10iay85FKAHE-19" style="edgeStyle=orthogonalEdgeStyle;rounded=0;orthogonalLoop=1;jettySize=auto;html=1;exitX=1;exitY=0.25;exitDx=0;exitDy=0;entryX=0;entryY=0.5;entryDx=0;entryDy=0;entryPerimeter=0;" parent="1" source="-xF81zYl10iay85FKAHE-9" target="-xF81zYl10iay85FKAHE-16" edge="1">
          <mxGeometry relative="1" as="geometry" />
        </mxCell>
        <mxCell id="-xF81zYl10iay85FKAHE-20" style="edgeStyle=orthogonalEdgeStyle;rounded=0;orthogonalLoop=1;jettySize=auto;html=1;exitX=1;exitY=1;exitDx=0;exitDy=0;" parent="1" source="-xF81zYl10iay85FKAHE-9" target="-xF81zYl10iay85FKAHE-14" edge="1">
          <mxGeometry relative="1" as="geometry" />
        </mxCell>
        <mxCell id="-xF81zYl10iay85FKAHE-9" value="LAN&lt;br&gt;192.168.10.0/24" style="text;html=1;strokeColor=none;fillColor=none;align=center;verticalAlign=middle;whiteSpace=wrap;rounded=0;" parent="1" vertex="1">
          <mxGeometry x="760" y="335.25" width="60" height="30" as="geometry" />
        </mxCell>
        <mxCell id="-xF81zYl10iay85FKAHE-14" value="192.168.10.102" style="fontColor=#0066CC;verticalAlign=top;verticalLabelPosition=bottom;labelPosition=center;align=center;html=1;outlineConnect=0;fillColor=#CCCCCC;strokeColor=#6881B3;gradientColor=none;gradientDirection=north;strokeWidth=2;shape=mxgraph.networks.pc;" parent="1" vertex="1">
          <mxGeometry x="890" y="430" width="80" height="50" as="geometry" />
        </mxCell>
        <mxCell id="-xF81zYl10iay85FKAHE-15" value="192.168.10.101" style="fontColor=#0066CC;verticalAlign=top;verticalLabelPosition=bottom;labelPosition=center;align=center;html=1;outlineConnect=0;fillColor=#CCCCCC;strokeColor=#6881B3;gradientColor=none;gradientDirection=north;strokeWidth=2;shape=mxgraph.networks.pc;" parent="1" vertex="1">
          <mxGeometry x="890" y="318.88" width="70" height="46.75" as="geometry" />
        </mxCell>
        <mxCell id="-xF81zYl10iay85FKAHE-16" value="192.168.10.100" style="fontColor=#0066CC;verticalAlign=top;verticalLabelPosition=bottom;labelPosition=center;align=center;html=1;outlineConnect=0;fillColor=#CCCCCC;strokeColor=#6881B3;gradientColor=none;gradientDirection=north;strokeWidth=2;shape=mxgraph.networks.pc;" parent="1" vertex="1">
          <mxGeometry x="879.5" y="210" width="70.5" height="50" as="geometry" />
        </mxCell>
        <mxCell id="-xF81zYl10iay85FKAHE-21" value="192.168.0.10" style="image;html=1;image=img/lib/clip_art/computers/Laptop_128x128.png" parent="1" vertex="1">
          <mxGeometry x="222.75" y="150" width="80" height="80" as="geometry" />
        </mxCell>
      </root>
    </mxGraphModel>
  </diagram>
</mxfile>
